# xmcd
#
# Track frame offsets:
#	150
#	11917
#	23717
#	40422
#	53135
#	64697
#	80370
#	93825
#	106370
#	116987
#	128680
#	141962
#	154017
#	166015
#	178907
#	193895
#	209830
#	226100
#	239007
#	253895
#	269897
#	284460
#
# Disc length: 4022 seconds
#
# Revision: 2
# Processed by: cddbd v1.5.2PL0 Copyright (c) Steve Scherf et al.
# Submitted via: audiograbber 1.83.01
#
DISCID=4c0fb416
DTITLE=Various Artist - The Greatest Country Stars Of The 20th Century (Reader
DTITLE='s Digest) [Disc 4]
DYEAR=2003
DGENRE=Country
TTITLE0=Tex Morton - The Goondiwindi Grey (1973)
TTITLE1=Donna Fargo - Funny Face (1973)
TTITLE2=Cal Smith - Country Bumpkin (1974)
TTITLE3=Charlie Rich - A Very Special Love Song (1974)
TTITLE4=Hank Thompson - The Older The Violin, The Sweeter The Music (1974)
TTITLE5=Kris Kristofferson - Why Me (1974)
TTITLE6=Ronnie Milsap - (I'd Be) A Legend In My Time (1974)
TTITLE7=Waylon Jennings - I'm A Ramblin' Man (1974)
TTITLE8=Willie Nelson - Blue Eyes Crying In The Rain (1975)
TTITLE9=Freddy Fender - Before The Next Teardrop Falls (1975)
TTITLE10=Johnny Ashcroft - Holy Joe The Salvo (1975)
TTITLE11=Crystal Gayle - Don't It Make My Brown Eyes Blue (1977)
TTITLE12=Johnny Paycheck - Take This Job And Shove It (1977)
TTITLE13=Eddie Rabbitt - Every Which Way But Loose (1979)
TTITLE14=Emmylou Harris - Blue Kentucky Girl (1979)
TTITLE15=John Williamson - True Blue (1982)
TTITLE16=Alabama - The Closer You Get (1983)
TTITLE17=Randy Travis - Honky Tonk Moon (1988)
TTITLE18=Dwight Yoakam - Ain't That Lonely Yet (1993)
TTITLE19=Gina Jeffreys - Two Stars Fell (1993)
TTITLE20=Alan Jackson - Summertime Blues (1994)
TTITLE21=Dixie Chicks - Ready To Run (1999)
EXTD=CD 4 of 4 YEAR: 2003
EXTT0=
EXTT1=
EXTT2=
EXTT3=
EXTT4=
EXTT5=
EXTT6=
EXTT7=
EXTT8=
EXTT9=
EXTT10=
EXTT11=
EXTT12=
EXTT13=
EXTT14=
EXTT15=
EXTT16=
EXTT17=
EXTT18=
EXTT19=
EXTT20=
EXTT21=
PLAYORDER=
